<?xml version="1.0" encoding="iso-8859-1"?>
<!-- Generator: Adobe Illustrator 19.0.0, SVG Export Plug-In . SVG Version: 6.00 Build 0)  -->
<svg version="1.1" id="Layer_1" xmlns="http://www.w3.org/2000/svg" xmlns:xlink="http://www.w3.org/1999/xlink" x="0px" y="0px"
	 viewBox="0 0 512 512" style="enable-background:new 0 0 512 512;" xml:space="preserve">
<polygon style="fill:#F2F2F2;" points="424.198,134.289 366.707,134.289 331.217,134.289 273.726,134.289 209.509,134.289 
	145.267,134.289 87.776,134.289 23.559,134.289 23.559,419.998 116.528,419.998 209.509,419.998 302.478,419.998 395.46,419.998 
	488.429,419.998 488.429,134.289 "/>
<g>
	<rect x="205.281" y="153.619" style="fill:#4D4D4D;" width="12.082" height="266.378"/>
	<polygon style="fill:#4D4D4D;" points="417.642,153.619 390.023,153.619 362.392,153.619 362.392,310.803 383.982,310.803 
		383.982,419.998 396.064,419.998 396.064,310.803 417.642,310.803 	"/>
	<polygon style="fill:#4D4D4D;" points="273.035,153.619 273.035,310.803 294.629,310.803 294.629,419.998 306.711,419.998 
		306.711,310.803 328.285,310.803 328.285,153.619 300.666,153.619 	"/>
	<polygon style="fill:#4D4D4D;" points="94.334,153.619 94.334,310.803 115.924,310.803 115.924,419.998 128.006,419.998 
		128.006,310.803 149.584,310.803 149.584,153.619 121.965,153.619 	"/>
</g>
<path style="fill:#3A88D6;" d="M512,112.179v307.819h-32.488l-0.145-0.072V158.464H32.621v261.533H0V112.179
	c0-11.139,9.037-20.177,20.177-20.177h471.647C502.963,92.002,512,101.04,512,112.179z"/>
</svg>
